HIERARCHY
ROOT joint_0
{
	OFFSET 0.000000 0.000000 0.000000
	CHANNELS 6 Xposition Yposition Zposition Zrotation Yrotation Xrotation 
	JOINT joint_1
	{
		OFFSET 0.511002 1.944000 108.288940
		CHANNELS 3 Zrotation Yrotation Xrotation
		JOINT joint_2
		{
			OFFSET -9.074005 1.512993 98.440063
			CHANNELS 3 Zrotation Yrotation Xrotation
			JOINT joint_3
			{
				OFFSET -8.590996 1.815002 98.366943
				CHANNELS 3 Zrotation Yrotation Xrotation
				JOINT joint_4
				{
					OFFSET 2.489998 3.531998 136.462036
					CHANNELS 3 Zrotation Yrotation Xrotation
					JOINT joint_5
					{
						OFFSET 22.708000 2.955002 80.357056
						CHANNELS 3 Zrotation Yrotation Xrotation
						End Site
						{
							OFFSET 0.000000 0.000000 0.000000
						}
					}
				}
				JOINT joint_6
				{
					OFFSET 2.860001 -27.684998 77.234009
					CHANNELS 3 Zrotation Yrotation Xrotation
					JOINT joint_7
					{
						OFFSET 5.449997 -131.244003 -18.851929
						CHANNELS 3 Zrotation Yrotation Xrotation
						JOINT joint_8
						{
							OFFSET 35.757000 -24.661995 -264.074097
							CHANNELS 3 Zrotation Yrotation Xrotation
							JOINT joint_9
							{
								OFFSET 49.392001 -1.747002 -239.960938
								CHANNELS 3 Zrotation Yrotation Xrotation
								End Site
								{
									OFFSET 0.000000 0.000000 0.000000
								}
							}
						}
					}
				}
				JOINT joint_10
				{
					OFFSET -0.127998 31.625000 75.753052
					CHANNELS 3 Zrotation Yrotation Xrotation
					JOINT joint_11
					{
						OFFSET -5.618004 131.132996 -19.557007
						CHANNELS 3 Zrotation Yrotation Xrotation
						JOINT joint_12
						{
							OFFSET 46.488998 30.127991 -261.826050
							CHANNELS 3 Zrotation Yrotation Xrotation
							JOINT joint_13
							{
								OFFSET 66.021003 0.474030 -235.934937
								CHANNELS 3 Zrotation Yrotation Xrotation
								End Site
								{
									OFFSET 0.000000 0.000000 0.000000
								}
							}
						}
					}
				}
			}
		}
	}
	JOINT joint_14
	{
		OFFSET 15.887001 -78.871004 -94.561035
		CHANNELS 3 Zrotation Yrotation Xrotation
		JOINT joint_15
		{
			OFFSET -4.133003 6.714001 -473.615967
			CHANNELS 3 Zrotation Yrotation Xrotation
			JOINT joint_16
			{
				OFFSET -19.541000 5.340000 -399.613007
				CHANNELS 3 Zrotation Yrotation Xrotation
				JOINT joint_17
				{
					OFFSET 164.317001 41.657999 -73.195000
					CHANNELS 3 Zrotation Yrotation Xrotation
					End Site
					{
						OFFSET 0.000000 0.000000 0.000000
					}
				}
			}
		}
	}
	JOINT joint_18
	{
		OFFSET 6.513000 77.960991 -96.406982
		CHANNELS 3 Zrotation Yrotation Xrotation
		JOINT joint_19
		{
			OFFSET -10.660004 -8.518997 -473.485016
			CHANNELS 3 Zrotation Yrotation Xrotation
			JOINT joint_20
			{
				OFFSET -36.967995 -11.098999 -398.260010
				CHANNELS 3 Zrotation Yrotation Xrotation
				JOINT joint_21
				{
					OFFSET 166.067997 30.363998 -74.785000
					CHANNELS 3 Zrotation Yrotation Xrotation
					End Site
					{
						OFFSET 0.000000 0.000000 0.000000
					}
				}
			}
		}
	}
}
MOTION
Frames: 18
Frame Time: 0.016667
-2386.531250 790.893616 1012.848022 1.929217 -0.613594 1.867193 -3.938458 6.564587 -0.759072 -1.592384 -1.036504 0.200895 -1.600889 1.341053 -0.025593 0.593833 -8.068796 -0.737515 0.000000 0.000000 0.000000 0.494389 2.155404 -1.669393 -0.599924 2.086506 -5.536440 -2.058376 8.612044 -10.136267 0.000000 0.000000 0.000000 -5.503332 5.928367 -0.886913 2.457443 7.094437 0.049207 2.263414 -6.729632 7.351079 0.000000 0.000000 0.000000 0.152019 -21.645032 -12.497558 -4.977415 31.188035 -0.473907 -8.569603 -9.641942 -0.747954 0.000000 0.000000 0.000000 -2.914441 -20.227184 24.032306 -4.403219 60.631614 -15.815473 -2.178606 8.316041 -2.810285 0.000000 0.000000 0.000000 
-2375.215820 789.835083 1015.093018 2.506911 -0.449556 1.720956 -3.812566 6.544401 -0.720695 -1.511139 -1.044286 0.214992 -1.524637 1.345901 -0.043942 0.538772 -7.726130 -0.633030 0.000000 0.000000 0.000000 0.323811 2.058046 -1.666694 -0.660933 1.990974 -5.273407 -1.997231 7.874273 -9.684605 0.000000 0.000000 0.000000 -5.585119 6.095562 -0.898267 2.371881 7.238733 0.078698 2.285652 -6.322514 7.456650 0.000000 0.000000 0.000000 -0.362327 -20.878883 -12.142095 -5.225270 30.893422 -0.706549 -8.790743 -9.974468 -0.768674 0.000000 0.000000 0.000000 -2.183853 -21.943166 24.260335 -3.786402 58.301195 -14.554044 0.286496 7.156838 -1.777245 0.000000 0.000000 0.000000 
-2364.072266 789.949768 1018.629028 3.100960 -0.191239 1.594998 -3.575619 6.252237 -0.763178 -1.472486 -0.996631 0.271439 -1.507485 1.284746 -0.093816 0.482121 -7.298405 -0.530697 0.000000 0.000000 0.000000 0.156680 2.011125 -1.651817 -0.713740 1.946347 -4.985582 -1.870285 6.906014 -8.941587 0.000000 0.000000 0.000000 -5.585848 6.292536 -0.856696 2.261809 7.396193 0.120528 2.277450 -5.877861 7.474334 0.000000 0.000000 0.000000 -0.968249 -19.977511 -11.837730 -5.440030 30.014486 -0.926736 -8.831065 -9.919216 -0.829273 0.000000 0.000000 0.000000 -1.393717 -23.392842 24.127569 -2.929470 54.554169 -13.028654 2.503191 6.682175 -0.984736 0.000000 0.000000 0.000000 
-2352.828125 790.977173 1022.460999 3.487385 -0.021645 1.483877 -3.324190 5.949561 -0.817729 -1.413685 -0.928286 0.297624 -1.457796 1.212308 -0.129702 0.416137 -6.777189 -0.395771 0.000000 0.000000 0.000000 0.073775 1.950679 -1.695449 -0.752408 1.902647 -4.653941 -1.724316 5.850624 -8.157370 0.000000 0.000000 0.000000 -5.517153 6.541641 -0.791377 2.153579 7.594779 0.125658 2.248812 -5.567668 7.418946 0.000000 0.000000 0.000000 -1.528237 -18.870255 -11.594071 -5.585131 28.838423 -1.067036 -8.756450 -9.721606 -0.884623 0.000000 0.000000 0.000000 -0.577932 -24.309641 23.827470 -1.869184 50.167610 -11.536181 4.096746 6.245735 -0.299717 0.000000 0.000000 0.000000 
-2341.387207 792.919617 1026.560059 3.547556 -0.049509 1.410828 -3.080515 5.753483 -0.902014 -1.309086 -0.835076 0.274071 -1.344523 1.143711 -0.130066 0.332309 -6.153775 -0.199362 0.000000 0.000000 0.000000 0.159858 1.861041 -1.835165 -0.780333 1.860273 -4.239221 -1.571376 4.669131 -7.384613 0.000000 0.000000 0.000000 -5.356481 6.883477 -0.681635 2.046616 7.866882 0.028934 2.183835 -5.520552 7.231567 0.000000 0.000000 0.000000 -2.006548 -17.409820 -11.468956 -5.634524 27.286317 -1.052258 -8.541432 -9.385982 -0.923284 0.000000 0.000000 0.000000 0.304654 -24.534991 23.406367 -0.585728 45.069622 -10.155915 5.124026 5.663577 0.303059 0.000000 0.000000 0.000000 
-2329.845703 795.773865 1030.956055 3.383809 -0.198141 1.357767 -2.815655 5.607473 -1.015123 -1.175404 -0.753482 0.234778 -1.194143 1.063090 -0.114974 0.240438 -5.438452 0.015644 0.000000 0.000000 0.000000 0.333622 1.761032 -2.006729 -0.799409 1.820663 -3.811822 -1.399672 3.396112 -6.565115 0.000000 0.000000 0.000000 -5.130564 7.279212 -0.542269 1.937449 8.180901 -0.114462 2.096763 -5.603089 6.964118 0.000000 0.000000 0.000000 -2.437128 -15.703177 -11.440755 -5.608400 25.401435 -0.939789 -8.205130 -8.847760 -0.965656 0.000000 0.000000 0.000000 1.242607 -24.099264 22.852920 0.804696 39.057289 -8.869215 5.616975 5.521877 0.657891 0.000000 0.000000 0.000000 
-2318.223633 799.270203 1034.739014 3.197362 -0.307431 1.256940 -2.547281 5.371941 -1.055872 -1.056923 -0.706322 0.196887 -1.059898 0.978242 -0.103278 0.157709 -4.654285 0.185811 0.000000 0.000000 0.000000 0.433929 1.637222 -2.152277 -0.804122 1.738340 -3.482344 -1.226285 2.290442 -5.766870 0.000000 0.000000 0.000000 -4.915357 7.633928 -0.454686 1.847826 8.467600 -0.180529 2.041022 -5.597935 6.799454 0.000000 0.000000 0.000000 -2.815420 -14.125140 -11.414560 -5.574066 23.690996 -0.856839 -7.899390 -8.323539 -1.007599 0.000000 0.000000 0.000000 1.962694 -23.304877 22.333448 1.902920 33.044615 -7.893367 5.506366 5.824385 0.689162 0.000000 0.000000 0.000000 
-2306.376221 803.282288 1037.753052 3.190519 -0.236795 1.084834 -2.291915 4.790939 -1.007273 -1.018665 -0.628971 0.176925 -1.016846 0.880779 -0.092668 0.090249 -3.759067 0.281676 0.000000 0.000000 0.000000 0.367917 1.479151 -2.277127 -0.785024 1.587824 -3.264111 -1.052018 1.488580 -4.970635 0.000000 0.000000 0.000000 -4.730492 7.932366 -0.449284 1.792640 8.720741 -0.119667 2.043300 -5.431113 6.833279 0.000000 0.000000 0.000000 -3.176029 -12.809425 -11.350704 -5.591841 22.226554 -0.858452 -7.684281 -7.915648 -1.048177 0.000000 0.000000 0.000000 2.208088 -22.350655 21.927530 2.469801 27.343801 -7.252946 4.799551 6.111579 0.474992 0.000000 0.000000 0.000000 
-2294.448486 807.936462 1040.154053 3.222694 -0.087920 0.874447 -2.046308 4.037946 -0.911513 -1.017669 -0.538257 0.169328 -1.017664 0.767853 -0.080710 0.032585 -2.789544 0.330026 0.000000 0.000000 0.000000 0.225190 1.301430 -2.383221 -0.755240 1.399475 -3.130063 -0.878874 0.858004 -4.176463 0.000000 0.000000 0.000000 -4.555325 8.192763 -0.477583 1.759917 8.948597 -0.011387 2.077355 -5.184208 6.975323 0.000000 0.000000 0.000000 -3.499224 -11.654725 -11.292198 -5.622171 20.953775 -0.890268 -7.516558 -7.572945 -1.085021 0.000000 0.000000 0.000000 2.128537 -21.176689 21.558224 2.644621 21.780058 -6.734233 3.860566 6.436928 0.135840 0.000000 0.000000 0.000000 
-2282.894287 813.343750 1041.495972 3.097145 0.011869 0.635045 -1.810174 3.455925 -0.727246 -0.978625 -0.502769 0.138144 -0.975189 0.671285 -0.069718 -0.015340 -1.891469 0.355182 0.000000 0.000000 0.000000 0.095966 1.124156 -2.439544 -0.740352 1.207585 -3.098388 -0.726571 0.255720 -3.479239 0.000000 0.000000 0.000000 -4.426377 8.365178 -0.519835 1.735060 9.102680 0.079016 2.119009 -4.879689 7.137833 0.000000 0.000000 0.000000 -3.735578 -10.758177 -11.268949 -5.622980 20.237190 -0.912409 -7.415566 -7.388430 -1.099136 0.000000 0.000000 0.000000 1.981498 -20.003061 21.170439 2.641452 17.042595 -6.206198 3.128315 6.882077 -0.179423 0.000000 0.000000 0.000000 
-2271.787109 819.644348 1041.620972 2.829510 0.122069 0.388917 -1.584821 2.968993 -0.475314 -0.915183 -0.485383 0.109312 -0.909368 0.600387 -0.058387 -0.047824 -1.095744 0.342432 0.000000 0.000000 0.000000 0.008279 0.965465 -2.465081 -0.747709 1.036658 -3.166292 -0.593378 -0.381148 -2.873201 0.000000 0.000000 0.000000 -4.344150 8.446297 -0.608478 1.716778 9.181505 0.159211 2.157927 -4.522987 7.283279 0.000000 0.000000 0.000000 -3.913465 -10.233301 -11.325956 -5.633152 20.179210 -0.880797 -7.429862 -7.435864 -1.092316 0.000000 0.000000 0.000000 1.845270 -19.114261 20.685174 2.580506 13.657023 -5.683305 2.691175 6.766790 -0.293408 0.000000 0.000000 0.000000 
-2261.054688 826.698059 1040.687012 2.539503 0.253641 0.156465 -1.394680 2.502578 -0.216442 -0.863804 -0.445630 0.102580 -0.860909 0.548075 -0.042170 -0.070192 -0.367012 0.304916 0.000000 0.000000 0.000000 -0.071187 0.805225 -2.468114 -0.767202 0.862606 -3.302173 -0.480628 -0.990739 -2.362332 0.000000 0.000000 0.000000 -4.311480 8.438460 -0.728768 1.708894 9.187117 0.231759 2.204673 -4.105896 7.448287 0.000000 0.000000 0.000000 -4.051446 -10.033343 -11.486250 -5.652842 20.706495 -0.823143 -7.538337 -7.704297 -1.060172 0.000000 0.000000 0.000000 1.611433 -18.462343 20.116813 2.414833 11.407662 -5.183924 2.352115 6.038587 -0.263709 0.000000 0.000000 0.000000 
-2250.931885 834.191956 1038.713989 2.234157 0.232185 -0.067979 -1.267177 2.352959 0.059854 -0.810656 -0.437391 0.071664 -0.805625 0.541315 -0.023357 -0.097125 0.247581 0.302218 0.000000 0.000000 0.000000 -0.129477 0.602860 -2.413756 -0.796416 0.646828 -3.468106 -0.412927 -1.534902 -2.064171 0.000000 0.000000 0.000000 -4.355674 8.297927 -0.801057 1.702352 9.071615 0.237155 2.264997 -3.624656 7.650536 0.000000 0.000000 0.000000 -4.097488 -10.038116 -11.746357 -5.597624 21.926480 -0.800984 -7.669226 -8.161464 -0.979344 0.000000 0.000000 0.000000 1.256249 -17.893270 19.576868 2.143159 10.117884 -4.725919 2.015763 5.565678 -0.289823 0.000000 0.000000 0.000000 
-2241.526123 842.166443 1035.322998 1.924230 -0.044112 -0.272786 -1.204502 2.662940 0.333299 -0.769038 -0.469600 0.018251 -0.758066 0.589722 0.005657 -0.128424 0.695370 0.342190 0.000000 0.000000 0.000000 -0.138522 0.332955 -2.308445 -0.835381 0.369303 -3.641150 -0.405676 -2.006237 -2.054299 0.000000 0.000000 0.000000 -4.514873 8.012024 -0.794782 1.691721 8.822127 0.114730 2.353222 -3.077042 7.931435 0.000000 0.000000 0.000000 -4.040907 -10.184254 -12.146506 -5.425885 23.954718 -0.829585 -7.808823 -8.897457 -0.817466 0.000000 0.000000 0.000000 0.693311 -17.283826 19.032175 1.689801 9.812954 -4.353889 1.557209 5.886836 -0.518399 0.000000 0.000000 0.000000 
-2232.730469 850.582153 1030.892944 1.629456 -0.464706 -0.429147 -1.166038 3.273879 0.542276 -0.753566 -0.524541 -0.021912 -0.740387 0.683775 0.041164 -0.164997 1.029940 0.419324 0.000000 0.000000 0.000000 -0.126752 0.020788 -2.160927 -0.881805 0.051203 -3.824872 -0.441987 -2.420569 -2.253524 0.000000 0.000000 0.000000 -4.750142 7.594213 -0.742501 1.678318 8.449583 -0.056941 2.454403 -2.459469 8.241587 0.000000 0.000000 0.000000 -3.897659 -10.527077 -12.685940 -5.163393 26.625290 -0.885152 -7.973154 -9.674335 -0.638528 0.000000 0.000000 0.000000 0.028298 -16.793716 18.461606 1.169850 10.502124 -4.130157 1.080269 6.365727 -0.788800 0.000000 0.000000 0.000000 
-2224.458740 858.996033 1026.583984 1.374505 -0.881575 -0.522743 -1.111240 4.018907 0.646212 -0.749705 -0.602731 -0.050537 -0.738607 0.812045 0.066767 -0.223164 1.371030 0.572431 0.000000 0.000000 0.000000 -0.180027 -0.296516 -1.934522 -0.929582 -0.285044 -4.024707 -0.499497 -2.767177 -2.554615 0.000000 0.000000 0.000000 -4.988256 7.041158 -0.664179 1.660809 7.945219 -0.124010 2.529092 -1.764918 8.461794 0.000000 0.000000 0.000000 -3.656770 -11.131117 -13.295100 -4.832489 29.634289 -0.959375 -8.129369 -9.975857 -0.559880 0.000000 0.000000 0.000000 -0.478911 -16.686276 18.015842 0.860163 12.022456 -4.082594 0.865184 6.140711 -0.829449 0.000000 0.000000 0.000000 
-2216.905029 867.311340 1022.443970 1.179120 -1.243741 -0.522503 -1.044126 4.908321 0.552426 -0.747228 -0.713125 -0.046362 -0.746660 0.984850 0.071963 -0.320281 1.724121 0.861805 0.000000 0.000000 0.000000 -0.370993 -0.651648 -1.547531 -0.980166 -0.688019 -4.292826 -0.578104 -3.032414 -2.957938 0.000000 0.000000 0.000000 -5.213305 6.284449 -0.550091 1.624691 7.240132 0.009889 2.563215 -0.844353 8.548681 0.000000 0.000000 0.000000 -3.249567 -12.052091 -13.987520 -4.400097 32.941147 -1.075602 -8.218605 -9.596930 -0.605012 0.000000 0.000000 0.000000 -0.699053 -17.304514 17.813573 0.893580 14.853022 -4.230152 1.112606 4.636117 -0.454797 0.000000 0.000000 0.000000 
-2209.876221 875.625793 1018.424988 0.987118 -1.624279 -0.463123 -0.939795 5.977762 0.360578 -0.751965 -0.863808 -0.033033 -0.768722 1.181774 0.066149 -0.438216 2.075620 1.225220 0.000000 0.000000 0.000000 -0.624025 -1.009746 -1.091460 -1.030043 -1.105840 -4.562382 -0.677509 -3.237146 -3.465047 0.000000 0.000000 0.000000 -5.437126 5.398061 -0.409442 1.572523 6.405520 0.257451 2.569093 0.152059 8.538800 0.000000 0.000000 0.000000 -2.733733 -13.198244 -14.747549 -3.871997 36.508811 -1.171725 -8.235833 -8.573175 -0.758669 0.000000 0.000000 0.000000 -0.794086 -18.211622 17.762115 1.103429 18.439871 -4.488745 1.667649 2.626340 0.129100 0.000000 0.000000 0.000000 
